<?xml version="1.0" standalone="no"?>
<!DOCTYPE svg PUBLIC "-//W3C//DTD SVG 20010904//EN"
 "http://www.w3.org/TR/2001/REC-SVG-20010904/DTD/svg10.dtd">
<svg version="1.0" xmlns="http://www.w3.org/2000/svg"
 width="1024.000000pt" height="1024.000000pt" viewBox="0 0 1024.000000 1024.000000"
 preserveAspectRatio="xMidYMid meet">

<g transform="translate(0.000000,1024.000000) scale(0.100000,-0.100000)"
fill="#000000" stroke="none">
<path d="M2155 6966 c-62 -28 -96 -89 -175 -313 l-43 -123 -83 0 -82 0 9 35
c6 20 9 50 7 68 -3 29 -8 34 -58 50 -104 35 -304 33 -434 -4 l-39 -11 7 -69 6
-69 -27 0 c-87 0 -203 -53 -284 -128 -67 -62 -100 -111 -129 -197 -20 -57 -20
-83 -20 -1132 0 -1060 0 -1074 21 -1135 53 -159 188 -278 348 -308 34 -6 599
-10 1580 -10 1655 0 1589 -2 1700 54 123 63 220 198 242 336 6 41 9 443 7
1105 -3 994 -4 1042 -22 1090 -63 164 -210 289 -372 315 -33 6 -215 10 -406
10 l-346 0 -16 43 c-125 338 -137 361 -199 391 -31 14 -96 16 -599 16 -447 -1
-569 -4 -593 -14z m834 -691 c334 -54 682 -221 947 -453 136 -120 313 -328
457 -540 54 -79 68 -112 48 -112 -6 0 -79 70 -163 156 -257 263 -484 432 -752
563 -256 125 -425 169 -680 178 -203 7 -296 -5 -456 -57 -183 -60 -367 -160
-560 -306 -182 -138 -416 -370 -541 -537 l-59 -79 32 -46 c64 -93 228 -280
341 -389 182 -175 416 -340 562 -399 38 -15 62 -30 58 -37 -3 -6 -1 -7 5 -3 7
4 48 -5 93 -19 131 -41 250 -58 404 -59 241 0 422 55 612 186 81 56 193 169
237 239 l30 47 98 -116 c54 -63 98 -119 98 -123 0 -4 -33 -36 -72 -69 -64 -54
-110 -86 -278 -196 -90 -58 -287 -125 -459 -155 -270 -48 -636 -11 -898 90
-225 87 -551 339 -783 606 -105 121 -308 380 -323 412 -25 55 25 132 242 370
261 287 626 565 913 698 82 37 382 142 443 155 69 14 304 11 404 -5z m-79
-406 c163 -26 345 -121 446 -232 143 -158 214 -337 214 -539 0 -227 -78 -409
-244 -565 -155 -148 -328 -216 -546 -215 -299 1 -569 173 -700 446 -59 123
-74 191 -74 336 0 179 40 306 138 444 174 244 475 372 766 325z m965 -474
c175 -144 237 -207 284 -289 43 -75 44 -78 31 -119 -31 -105 -172 -369 -251
-469 l-30 -37 -97 72 c-54 40 -113 83 -133 96 l-35 24 33 87 c18 49 40 130 49
182 32 180 -1 417 -78 578 l-33 68 80 -55 c44 -31 125 -93 180 -138z"/>
<path d="M2290 4180 c8 -5 20 -10 25 -10 6 0 3 5 -5 10 -8 5 -19 10 -25 10 -5
0 -3 -5 5 -10z"/>
<path d="M2568 4083 c7 -3 16 -2 19 1 4 3 -2 6 -13 5 -11 0 -14 -3 -6 -6z"/>
<path d="M3238 4043 c7 -3 16 -2 19 1 4 3 -2 6 -13 5 -11 0 -14 -3 -6 -6z"/>
<path d="M3198 4033 c7 -3 16 -2 19 1 4 3 -2 6 -13 5 -11 0 -14 -3 -6 -6z"/>
<path d="M2908 4023 c12 -2 30 -2 40 0 9 3 -1 5 -23 4 -22 0 -30 -2 -17 -4z"/>
<path d="M3078 4023 c12 -2 30 -2 40 0 9 3 -1 5 -23 4 -22 0 -30 -2 -17 -4z"/>
<path d="M2700 5621 c-74 -24 -138 -80 -164 -143 -20 -48 -20 -150 -1 -193 38
-79 124 -135 220 -142 116 -10 208 39 258 136 60 119 13 262 -107 323 -44 23
-161 34 -206 19z m171 -16 c64 -23 104 -59 135 -120 23 -48 26 -64 21 -115 -9
-104 -73 -181 -173 -209 -122 -34 -259 22 -305 124 -24 53 -24 141 0 198 47
108 197 166 322 122z"/>
<path d="M2676 5040 c-220 -40 -346 -160 -346 -329 0 -91 67 -174 181 -225 76
-33 151 -47 265 -47 177 -1 314 43 408 130 166 155 88 360 -170 452 -67 24
-254 34 -338 19z m277 -15 c267 -56 388 -267 246 -429 -132 -150 -489 -195
-705 -89 -70 34 -140 108 -150 158 -16 87 23 206 87 259 59 50 174 97 264 109
70 9 195 6 258 -8z"/>
<path d="M8679 6217 c-39 -26 -66 -89 -55 -130 25 -100 158 -134 230 -58 105
109 -48 274 -175 188z"/>
<path d="M5375 5635 l0 -575 113 0 112 0 0 367 0 368 134 -245 134 -245 84 -3
84 -3 122 229 c68 126 129 238 137 248 13 17 14 -29 15 -348 l0 -368 110 0
110 0 0 575 0 576 -121 -3 -121 -3 -85 -165 c-218 -421 -246 -470 -257 -461
-7 6 -84 150 -171 320 l-160 310 -120 1 -120 0 0 -575z"/>
<path d="M7036 5899 c-285 -41 -448 -350 -324 -612 45 -93 111 -159 206 -205
61 -29 87 -35 160 -40 197 -11 349 73 430 236 37 75 37 77 37 196 0 117 -1
123 -34 188 -86 173 -273 266 -475 237z m137 -200 c91 -25 150 -117 149 -231
0 -127 -71 -217 -176 -226 -82 -7 -119 4 -170 49 -36 32 -49 53 -62 97 -56
193 83 360 259 311z"/>
<path d="M8097 5900 c-68 -12 -133 -54 -168 -108 l-29 -46 0 67 0 67 -110 0
-110 0 0 -410 0 -410 115 0 115 0 0 243 c0 133 4 258 10 276 11 39 51 86 92
107 37 19 123 18 158 -2 15 -9 36 -31 46 -48 17 -28 19 -57 22 -303 l3 -273
112 0 112 0 -5 322 -5 323 -27 51 c-15 29 -44 66 -65 83 -62 51 -173 77 -266
61z"/>
<path d="M8640 5470 l0 -410 115 0 115 0 0 410 0 410 -115 0 -115 0 0 -410z"/>
<path d="M7870 4275 l0 -595 115 0 115 0 0 179 0 179 27 20 26 19 141 -198
141 -198 133 -1 c104 0 132 3 126 13 -4 6 -79 112 -166 234 -87 122 -161 229
-164 237 -7 18 11 40 183 224 l125 132 -135 0 c-157 0 -126 18 -296 -172 -149
-167 -141 -179 -141 208 l0 314 -115 0 -115 0 0 -595z"/>
<path d="M5330 4735 l0 -105 165 0 165 0 0 -472 -1 -473 113 0 113 0 0 470 1
470 165 3 165 2 12 45 c7 25 12 72 12 105 l0 60 -455 0 -455 -1 0 -104z"/>
<path d="M7273 4523 c-165 -56 -238 -209 -167 -351 41 -83 86 -108 326 -178
68 -20 101 -50 96 -89 -8 -74 -133 -93 -252 -37 -37 17 -81 41 -97 53 -17 12
-31 20 -33 18 -1 -2 -24 -30 -51 -63 l-50 -59 45 -40 c160 -143 440 -154 578
-23 53 49 75 101 75 176 0 141 -73 210 -273 260 -147 36 -180 54 -180 100 0
44 42 74 103 74 62 0 105 -15 172 -62 l49 -35 53 59 c29 32 53 64 53 70 0 21
-72 76 -138 107 -55 26 -79 31 -161 34 -72 2 -109 -1 -148 -14z"/>
<path d="M6437 4520 c-85 -22 -227 -110 -227 -142 0 -6 19 -33 42 -62 23 -28
44 -53 45 -56 2 -2 16 4 31 14 76 49 136 69 207 69 119 0 195 -49 195 -126 0
-24 -2 -24 -117 -31 -312 -18 -448 -111 -430 -292 15 -144 126 -229 302 -229
67 0 89 5 137 28 31 15 72 45 92 67 l36 40 1 -45 c1 -25 2 -51 3 -57 1 -9 29
-14 96 -16 l95 -3 -2 133 c-2 73 -4 216 -5 318 -3 169 -5 189 -25 226 -30 57
-104 119 -172 145 -63 25 -238 35 -304 19z m293 -517 c0 -61 -26 -104 -83
-137 -110 -65 -237 -33 -237 59 0 81 83 119 268 124 l52 1 0 -47z"/>
</g>
</svg>
